HIERARCHY
ROOT Hips
{
	OFFSET -351.999878 -572.954773 89.312325
	CHANNELS 6 Xposition Yposition Zposition Zrotation Yrotation Xrotation
	JOINT Spine
	{
		OFFSET 0.000000 2.080078 8.814247
		CHANNELS 6 Xposition Yposition Zposition Zrotation Yrotation Xrotation
		JOINT Spine1
		{
			OFFSET 0.000000 0.000000 8.844139
			CHANNELS 6 Xposition Yposition Zposition Zrotation Yrotation Xrotation
			JOINT Spine2
			{
				OFFSET 0.000000 0.000000 11.682266
				CHANNELS 6 Xposition Yposition Zposition Zrotation Yrotation Xrotation
				JOINT Spine3
				{
					OFFSET 0.000000 0.000000 11.746696
					CHANNELS 6 Xposition Yposition Zposition Zrotation Yrotation Xrotation
					JOINT Neck
					{
						OFFSET 0.000000 0.000000 17.658264
						CHANNELS 6 Xposition Yposition Zposition Zrotation Yrotation Xrotation
						JOINT Neck1
						{
							OFFSET 0.000000 0.000000 5.101517
							CHANNELS 6 Xposition Yposition Zposition Zrotation Yrotation Xrotation
							JOINT Head
							{
								OFFSET 0.000000 0.000000 5.101517
								CHANNELS 6 Xposition Yposition Zposition Zrotation Yrotation Xrotation
								JOINT HeadEnd
								{
									OFFSET 0.000000 0.000000 11.655090
									CHANNELS 6 Xposition Yposition Zposition Zrotation Yrotation Xrotation
									End Site
									{
										OFFSET 0.000000 0.000000 0.100006
									}
								}
							}
						}
					}
					JOINT RightShoulder
					{
						OFFSET -2.625397 0.000000 11.175217
						CHANNELS 6 Xposition Yposition Zposition Zrotation Yrotation Xrotation
						JOINT RightArm
						{
							OFFSET 0.000000 0.000000 10.434708
							CHANNELS 6 Xposition Yposition Zposition Zrotation Yrotation Xrotation
							JOINT RightForeArm
							{
								OFFSET 0.000000 0.000000 29.628418
								CHANNELS 6 Xposition Yposition Zposition Zrotation Yrotation Xrotation
								JOINT RightHand
								{
									OFFSET 0.000000 0.000000 22.857605
									CHANNELS 6 Xposition Yposition Zposition Zrotation Yrotation Xrotation
									JOINT RightHandThumb1
									{
										OFFSET -2.867310 -2.944275 3.959564
										CHANNELS 6 Xposition Yposition Zposition Zrotation Yrotation Xrotation
										JOINT RightHandThumb2
										{
											OFFSET 0.000000 0.000000 3.350403
											CHANNELS 6 Xposition Yposition Zposition Zrotation Yrotation Xrotation
											JOINT RightHandThumb3
											{
												OFFSET 0.000000 0.000000 3.756516
												CHANNELS 6 Xposition Yposition Zposition Zrotation Yrotation Xrotation
												JOINT RightHandThumb4
												{
													OFFSET 0.000000 0.000000 3.147339
													CHANNELS 6 Xposition Yposition Zposition Zrotation Yrotation Xrotation
													End Site
													{
														OFFSET 0.000000 0.000000 0.100006
													}
												}
											}
										}
									}
									JOINT RightHandIndex1
									{
										OFFSET -0.086761 -2.345276 10.030899
										CHANNELS 6 Xposition Yposition Zposition Zrotation Yrotation Xrotation
										JOINT RightHandIndex2
										{
											OFFSET 0.000000 0.000000 4.061096
											CHANNELS 6 Xposition Yposition Zposition Zrotation Yrotation Xrotation
											JOINT RightHandIndex3
											{
												OFFSET 0.000000 0.000000 3.248871
												CHANNELS 6 Xposition Yposition Zposition Zrotation Yrotation Xrotation
												JOINT RightHandIndex4
												{
													OFFSET 0.000000 0.000000 2.639709
													CHANNELS 6 Xposition Yposition Zposition Zrotation Yrotation Xrotation
													End Site
													{
														OFFSET 0.000000 0.000000 0.100006
													}
												}
											}
										}
									}
									JOINT RightHandMiddle1
									{
										OFFSET 0.104095 -0.006775 9.502945
										CHANNELS 6 Xposition Yposition Zposition Zrotation Yrotation Xrotation
										JOINT RightHandMiddle2
										{
											OFFSET 0.000000 0.000000 4.568726
											CHANNELS 6 Xposition Yposition Zposition Zrotation Yrotation Xrotation
											JOINT RightHandMiddle3
											{
												OFFSET 0.000000 0.000000 3.654984
												CHANNELS 6 Xposition Yposition Zposition Zrotation Yrotation Xrotation
												JOINT RightHandMiddle4
												{
													OFFSET 0.000000 0.000000 2.741241
													CHANNELS 6 Xposition Yposition Zposition Zrotation Yrotation Xrotation
													End Site
													{
														OFFSET 0.000000 0.000000 0.100006
													}
												}
											}
										}
									}
									JOINT RightHandRing1
									{
										OFFSET 0.086761 2.267456 8.921707
										CHANNELS 6 Xposition Yposition Zposition Zrotation Yrotation Xrotation
										JOINT RightHandRing2
										{
											OFFSET 0.000000 0.000000 4.061096
											CHANNELS 6 Xposition Yposition Zposition Zrotation Yrotation Xrotation
											JOINT RightHandRing3
											{
												OFFSET 0.000000 0.000000 3.654984
												CHANNELS 6 Xposition Yposition Zposition Zrotation Yrotation Xrotation
												JOINT RightHandRing4
												{
													OFFSET 0.000000 0.000000 2.741241
													CHANNELS 6 Xposition Yposition Zposition Zrotation Yrotation Xrotation
													End Site
													{
														OFFSET 0.000000 0.000000 0.100006
													}
												}
											}
										}
									}
									JOINT RightHandPinky1
									{
										OFFSET -0.173492 4.467224 7.976990
										CHANNELS 6 Xposition Yposition Zposition Zrotation Yrotation Xrotation
										JOINT RightHandPinky2
										{
											OFFSET 0.000000 0.000000 3.350403
											CHANNELS 6 Xposition Yposition Zposition Zrotation Yrotation Xrotation
											JOINT RightHandPinky3
											{
												OFFSET 0.000000 0.000000 2.842758
												CHANNELS 6 Xposition Yposition Zposition Zrotation Yrotation Xrotation
												JOINT RightHandPinky4
												{
													OFFSET 0.000000 0.000000 2.639709
													CHANNELS 6 Xposition Yposition Zposition Zrotation Yrotation Xrotation
													End Site
													{
														OFFSET 0.000000 0.000000 0.100006
													}
												}
											}
										}
									}
									JOINT RightForeArmEnd
									{
										OFFSET 0.000000 0.000000 0.000000
										CHANNELS 6 Xposition Yposition Zposition Zrotation Yrotation Xrotation
										End Site
										{
											OFFSET 0.000000 0.000000 0.100006
										}
									}
								}
								JOINT RightArmEnd
								{
									OFFSET 0.000000 0.000000 0.000000
									CHANNELS 6 Xposition Yposition Zposition Zrotation Yrotation Xrotation
									End Site
									{
										OFFSET 0.000000 0.000000 0.100006
									}
								}
							}
						}
					}
					JOINT LeftShoulder
					{
						OFFSET 2.625397 0.000000 11.175217
						CHANNELS 6 Xposition Yposition Zposition Zrotation Yrotation Xrotation
						JOINT LeftArm
						{
							OFFSET 0.000000 0.000000 10.813629
							CHANNELS 6 Xposition Yposition Zposition Zrotation Yrotation Xrotation
							JOINT LeftForeArm
							{
								OFFSET 0.000000 0.000000 28.724777
								CHANNELS 6 Xposition Yposition Zposition Zrotation Yrotation Xrotation
								JOINT LeftHand
								{
									OFFSET 0.644379 0.328857 25.716171
									CHANNELS 6 Xposition Yposition Zposition Zrotation Yrotation Xrotation
									JOINT LeftHandThumb1
									{
										OFFSET 2.867310 -2.944275 3.959564
										CHANNELS 6 Xposition Yposition Zposition Zrotation Yrotation Xrotation
										JOINT LeftHandThumb2
										{
											OFFSET 0.000000 0.000000 3.350403
											CHANNELS 6 Xposition Yposition Zposition Zrotation Yrotation Xrotation
											JOINT LeftHandThumb3
											{
												OFFSET 0.000000 0.000000 3.756516
												CHANNELS 6 Xposition Yposition Zposition Zrotation Yrotation Xrotation
												JOINT LeftHandThumb4
												{
													OFFSET 0.000000 0.000000 3.100006
													CHANNELS 6 Xposition Yposition Zposition Zrotation Yrotation Xrotation
													End Site
													{
														OFFSET 0.000000 0.000000 0.100006
													}
												}
											}
										}
									}
									JOINT LeftHandIndex1
									{
										OFFSET 0.086761 -2.345276 10.030899
										CHANNELS 6 Xposition Yposition Zposition Zrotation Yrotation Xrotation
										JOINT LeftHandIndex2
										{
											OFFSET 0.000000 0.000000 4.061096
											CHANNELS 6 Xposition Yposition Zposition Zrotation Yrotation Xrotation
											JOINT LeftHandIndex3
											{
												OFFSET 0.000000 0.000000 3.248871
												CHANNELS 6 Xposition Yposition Zposition Zrotation Yrotation Xrotation
												JOINT LeftHandIndex4
												{
													OFFSET 0.000000 0.000000 2.639709
													CHANNELS 6 Xposition Yposition Zposition Zrotation Yrotation Xrotation
													End Site
													{
														OFFSET 0.000000 0.000000 0.100006
													}
												}
											}
										}
									}
									JOINT LeftHandMiddle1
									{
										OFFSET -0.104095 -0.006775 9.502945
										CHANNELS 6 Xposition Yposition Zposition Zrotation Yrotation Xrotation
										JOINT LeftHandMiddle2
										{
											OFFSET 0.000000 0.000000 4.568726
											CHANNELS 6 Xposition Yposition Zposition Zrotation Yrotation Xrotation
											JOINT LeftHandMiddle3
											{
												OFFSET 0.000000 0.000000 3.654984
												CHANNELS 6 Xposition Yposition Zposition Zrotation Yrotation Xrotation
												JOINT LeftHandMiddle4
												{
													OFFSET 0.000000 0.000000 2.741241
													CHANNELS 6 Xposition Yposition Zposition Zrotation Yrotation Xrotation
													End Site
													{
														OFFSET 0.000000 0.000000 0.100006
													}
												}
											}
										}
									}
									JOINT LeftHandRing1
									{
										OFFSET -0.086761 2.267456 8.921707
										CHANNELS 6 Xposition Yposition Zposition Zrotation Yrotation Xrotation
										JOINT LeftHandRing2
										{
											OFFSET 0.000000 0.000000 4.061096
											CHANNELS 6 Xposition Yposition Zposition Zrotation Yrotation Xrotation
											JOINT LeftHandRing3
											{
												OFFSET 0.000000 0.000000 3.654984
												CHANNELS 6 Xposition Yposition Zposition Zrotation Yrotation Xrotation
												JOINT LeftHandRing4
												{
													OFFSET 0.000000 0.000000 2.741241
													CHANNELS 6 Xposition Yposition Zposition Zrotation Yrotation Xrotation
													End Site
													{
														OFFSET 0.000000 0.000000 0.100006
													}
												}
											}
										}
									}
									JOINT LeftHandPinky1
									{
										OFFSET 0.173492 4.467224 7.976990
										CHANNELS 6 Xposition Yposition Zposition Zrotation Yrotation Xrotation
										JOINT LeftHandPinky2
										{
											OFFSET 0.000000 0.000000 3.350403
											CHANNELS 6 Xposition Yposition Zposition Zrotation Yrotation Xrotation
											JOINT LeftHandPinky3
											{
												OFFSET 0.000000 0.000000 2.842758
												CHANNELS 6 Xposition Yposition Zposition Zrotation Yrotation Xrotation
												JOINT LeftHandPinky4
												{
													OFFSET 0.000000 0.000000 2.639709
													CHANNELS 6 Xposition Yposition Zposition Zrotation Yrotation Xrotation
													End Site
													{
														OFFSET 0.000000 0.000000 0.100006
													}
												}
											}
										}
									}
									JOINT LeftForeArmEnd
									{
										OFFSET 0.000000 0.000000 0.000000
										CHANNELS 6 Xposition Yposition Zposition Zrotation Yrotation Xrotation
										End Site
										{
											OFFSET 0.000000 0.000000 0.100006
										}
									}
								}
								JOINT LeftArmEnd
								{
									OFFSET 0.000000 0.000000 0.000000
									CHANNELS 6 Xposition Yposition Zposition Zrotation Yrotation Xrotation
									End Site
									{
										OFFSET 0.000000 0.000000 0.100006
									}
								}
							}
						}
					}
				}
			}
		}
	}
	JOINT RightUpLeg
	{
		OFFSET -11.289948 0.000000 0.000000
		CHANNELS 6 Xposition Yposition Zposition Zrotation Yrotation Xrotation
		JOINT RightLeg
		{
			OFFSET 0.000000 0.000000 -38.200329
			CHANNELS 6 Xposition Yposition Zposition Zrotation Yrotation Xrotation
			JOINT RightFoot
			{
				OFFSET 0.000000 0.000000 -39.900856
				CHANNELS 6 Xposition Yposition Zposition Zrotation Yrotation Xrotation
				JOINT RightToeBase
				{
					OFFSET 0.000000 -15.261658 0.000002
					CHANNELS 6 Xposition Yposition Zposition Zrotation Yrotation Xrotation
					JOINT RightToeBaseEnd
					{
						OFFSET 0.000000 -7.370728 0.000000
						CHANNELS 6 Xposition Yposition Zposition Zrotation Yrotation Xrotation
						End Site
						{
							OFFSET 0.000000 0.000000 0.100000
						}
					}
				}
				JOINT RightLegEnd
				{
					OFFSET 0.000000 0.000000 0.000000
					CHANNELS 6 Xposition Yposition Zposition Zrotation Yrotation Xrotation
					End Site
					{
						OFFSET 0.000000 0.000000 0.100000
					}
				}
			}
			JOINT RightUpLegEnd
			{
				OFFSET 0.000000 0.000000 0.000000
				CHANNELS 6 Xposition Yposition Zposition Zrotation Yrotation Xrotation
				End Site
				{
					OFFSET 0.000000 0.000000 0.099998
				}
			}
		}
	}
	JOINT LeftUpLeg
	{
		OFFSET 11.315674 0.000000 0.000000
		CHANNELS 6 Xposition Yposition Zposition Zrotation Yrotation Xrotation
		JOINT LeftLeg
		{
			OFFSET 0.000000 0.000000 -38.200329
			CHANNELS 6 Xposition Yposition Zposition Zrotation Yrotation Xrotation
			JOINT LeftFoot
			{
				OFFSET 0.000000 0.000000 -39.900856
				CHANNELS 6 Xposition Yposition Zposition Zrotation Yrotation Xrotation
				JOINT LeftToeBase
				{
					OFFSET 0.000000 -15.261658 0.000002
					CHANNELS 6 Xposition Yposition Zposition Zrotation Yrotation Xrotation
					JOINT LeftToeBaseEnd
					{
						OFFSET 0.000000 -7.539978 0.000000
						CHANNELS 6 Xposition Yposition Zposition Zrotation Yrotation Xrotation
						End Site
						{
							OFFSET 0.000000 0.000000 0.100000
						}
					}
				}
				JOINT LeftLegEnd
				{
					OFFSET 0.000000 0.000000 0.000000
					CHANNELS 6 Xposition Yposition Zposition Zrotation Yrotation Xrotation
					End Site
					{
						OFFSET 0.000000 0.000000 0.100000
					}
				}
			}
			JOINT LeftUpLegEnd
			{
				OFFSET 0.000000 0.000000 0.000000
				CHANNELS 6 Xposition Yposition Zposition Zrotation Yrotation Xrotation
				End Site
				{
					OFFSET 0.000000 0.000000 0.099998
				}
			}
		}
	}
}
MOTION
Frames: 2
Frame Time: 0.016667
-13.125580 -24.056885 82.038902 48.363429 0.429488 -2.957284 0.000008 2.080077 8.814254 -0.519851 -1.624210 9.130694 0.000004 0.000014 8.844139 -0.144446 -0.969115 4.458874 0.000017 -0.000020 11.682272 -4.824870 -2.803470 3.543469 -0.000011 0.000013 11.746672 -0.550626 -2.514342 3.292790 -0.000031 0.000011 17.658257 -12.786617 -33.238532 -15.805766 -0.000040 0.000010 5.101498 -2.784064 -6.293960 -18.723878 -0.000006 0.000027 5.101521 -1.472831 -2.582366 -12.220913 0.000013 0.000001 11.655054 -0.000001 0.000000 0.000001 -2.625431 -0.000008 11.175230 14.370844 -82.483885 -2.461568 -0.000008 0.000000 10.434704 -109.308777 -38.536108 67.727350 0.000006 -0.000040 29.628414 -20.506151 -2.160821 9.440676 0.000000 0.000061 22.857567 -12.142991 -30.004147 -13.803709 -2.867302 -2.944275 3.959564 32.544554 -26.594170 38.430899 -0.000008 0.000015 3.350372 -33.283724 10.408512 -56.106384 -0.000046 -0.000008 3.756493 -22.156813 10.832771 -38.322836 -0.000024 0.000008 3.147328 -0.000000 0.000000 -0.000002 -0.086788 -2.345242 10.030833 -89.652155 -71.581127 97.649705 -0.000004 -0.000006 4.061089 -9.126278 -62.638039 15.757841 -0.000015 -0.000076 3.248871 -9.626265 -62.638026 15.757825 0.000005 0.000005 2.639721 -0.000001 -0.000001 -0.000002 0.104086 -0.006775 9.502924 -79.387179 -76.328081 89.867333 -0.000010 -0.000006 4.568720 -2.806049 -61.544294 5.549248 -0.000052 0.000018 3.654974 -3.306050 -61.544301 5.549268 0.000012 -0.000008 2.741220 -0.000001 0.000000 -0.000001 0.086756 2.267525 8.921684 -99.992569 -84.242133 115.145624 -0.000013 0.000008 4.061087 3.139493 -62.663154 -6.794779 -0.000053 0.000011 3.654974 4.139530 -62.663168 -6.794837 -0.000011 0.000001 2.741238 -0.000000 0.000000 0.000000 -0.173493 4.467278 7.977020 124.959267 -87.585080 -102.144687 -0.000008 -0.000013 3.350418 8.509869 -58.641238 -18.600162 -0.000008 -0.000031 2.842766 10.509897 -58.641299 -18.600205 0.000014 0.000011 2.639722 -0.000000 0.000001 0.000001 -0.000016 0.000046 -0.000016 0.000001 -0.000001 -0.000000 -0.000002 -0.000008 -0.000001 0.000001 0.000001 -0.000001 2.625374 -0.000008 11.175198 -12.730332 57.852932 -0.445240 -0.000023 -0.000004 10.813628 -259.512928 80.728253 -244.215381 -0.000034 -0.000038 28.724789 -15.842924 1.316645 34.869646 0.644417 0.328873 25.716125 -33.121834 -61.749090 -19.811870 2.867290 -2.944321 3.959534 -34.441041 31.277297 32.160215 0.000000 0.000015 3.350418 42.745776 -7.194355 -71.748200 -0.000015 -0.000031 3.756538 29.156421 -10.964170 -49.489498 0.000002 0.000025 3.100013 -0.000002 0.000001 -0.000000 0.086754 -2.345243 10.030914 -0.576871 118.899660 -10.493900 -0.000015 0.000008 4.061119 -44.870060 80.013105 -52.950266 0.000015 0.000000 3.248955 -45.370064 80.013125 -52.948641 -0.000016 0.000001 2.639736 -0.000003 0.000001 0.000001 -0.104101 -0.006796 9.502983 168.377373 62.194104 164.639838 0.000023 -0.000053 4.568766 -17.348368 81.543791 -20.641084 0.000010 -0.000075 3.654993 -17.848428 81.543784 -20.641610 -0.000044 0.000016 2.741268 -0.000002 0.000003 -0.000004 -0.086796 2.267438 8.921738 156.480768 55.675211 159.647134 0.000031 0.000013 4.061115 31.254406 84.002851 35.601593 0.000008 0.000000 3.655035 32.254711 84.002864 35.605629 -0.000022 0.000011 2.741251 -0.000001 0.000000 0.000001 0.173462 4.467175 7.976997 143.740689 52.005180 154.520982 -0.000004 -0.000031 3.350429 57.198675 78.299260 69.813863 0.000008 -0.000031 2.842793 59.198479 78.299089 69.809697 -0.000032 0.000005 2.639722 -0.000000 0.000001 -0.000001 -0.000007 0.000003 0.000005 0.000002 -0.000003 0.000002 -0.000007 -0.000004 -0.000000 0.000000 0.000002 -0.000002 -11.289911 0.000065 0.000008 8.458675 10.808019 -21.744867 0.000023 0.000020 -38.200237 0.261152 -0.778090 71.345936 -0.000005 -0.000031 -39.900925 -12.854854 2.767398 46.646289 -0.000013 -15.261726 0.000050 0.807273 -11.156685 -56.968760 0.000009 -7.370656 0.000002 -0.000002 0.000002 0.000002 -0.000005 0.000005 -0.000002 -0.000001 -0.000003 0.000001 0.000034 0.000066 -0.000003 -0.000001 -0.000001 -0.000003 11.315662 -0.000027 -0.000003 -34.930311 0.730954 -25.644668 -0.000005 0.000022 -38.200340 0.077009 -0.094370 50.781732 0.000009 0.000085 -39.900852 2.803035 -2.534641 5.124728 0.000027 -15.261673 0.000036 -1.521339 0.520343 -20.221601 0.000001 -7.539981 0.000001 0.000000 0.000000 0.000000 -0.000002 -0.000052 0.000003 -0.000002 0.000001 0.000001 -0.000004 0.000001 -0.000003 0.000000 -0.000000 0.000002 
-13.287018 -24.158691 81.442276 48.786723 0.670664 -3.152761 -0.000014 2.080025 8.814244 -0.557107 -1.614896 9.410214 -0.000001 -0.000027 8.844139 -0.114105 -0.933364 4.601505 -0.000010 -0.000016 11.682280 -4.915545 -2.780724 3.653657 0.000001 0.000019 11.746674 -0.564764 -2.486640 3.161974 0.000031 -0.000011 17.658264 -13.464247 -33.418002 -14.991762 -0.000022 -0.000011 5.101494 -2.948888 -6.254187 -18.526169 0.000015 0.000004 5.101524 -1.443954 -2.679090 -12.432684 0.000014 -0.000006 11.655098 0.000001 -0.000002 -0.000002 -2.625385 0.000018 11.175219 14.327676 -83.452426 -2.346236 -0.000015 0.000000 10.434738 -105.858862 -39.832424 66.571900 0.000011 -0.000002 29.628426 -19.617721 -2.105371 9.305682 0.000069 -0.000015 22.857574 -13.881186 -27.938988 -13.190905 -2.867285 -2.944275 3.959579 32.486897 -26.400044 38.690576 -0.000008 -0.000015 3.350372 -32.871184 10.485715 -55.441772 -0.000008 -0.000031 3.756516 -21.866951 10.798275 -37.858854 0.000002 -0.000002 3.147327 -0.000000 -0.000001 -0.000001 -0.086774 -2.345257 10.030882 -84.314717 -71.504745 92.920687 -0.000008 0.000023 4.061111 -8.487740 -61.552832 15.035330 -0.000011 0.000008 3.248871 -8.987715 -61.552804 15.035312 0.000012 -0.000004 2.639717 0.000001 0.000000 0.000001 0.104118 -0.006783 9.502951 -73.997511 -76.034328 85.129442 0.000025 -0.000040 4.568748 -2.629194 -60.648125 5.347236 0.000000 0.000012 3.654968 -3.129192 -60.648173 5.347266 -0.000005 -0.000008 2.741225 -0.000000 0.000000 -0.000001 0.086801 2.267429 8.921700 -92.675873 -84.324218 108.458534 -0.000008 0.000010 4.061106 3.002637 -62.124901 -6.640369 -0.000013 0.000010 3.654968 4.002665 -62.124880 -6.640398 -0.000001 0.000008 2.741231 -0.000001 0.000001 -0.000002 -0.173477 4.467236 7.976989 117.016058 -87.777800 -93.985336 0.000015 -0.000021 3.350410 8.337783 -58.372538 -18.398335 -0.000008 -0.000008 2.842758 10.337770 -58.372470 -18.398327 0.000014 0.000014 2.639698 -0.000002 0.000000 0.000001 0.000022 -0.000004 -0.000008 -0.000001 -0.000001 -0.000001 0.000028 -0.000061 0.000000 0.000001 0.000000 0.000000 2.625389 -0.000008 11.175211 -13.004856 58.473584 -0.429704 0.000003 0.000011 10.813607 -261.722686 79.157665 -245.850392 -0.000042 -0.000053 28.724770 -15.618455 1.154861 34.950700 0.644310 0.328911 25.716118 -33.750410 -61.531740 -18.922771 2.867292 -2.944336 3.959518 -34.441021 31.277284 32.160229 0.000000 0.000000 3.350365 42.745786 -7.194385 -71.748214 -0.000038 -0.000031 3.756493 29.156001 -10.960329 -49.487289 -0.000027 0.000010 3.100017 -0.000000 -0.000002 -0.000001 0.086761 -2.345252 10.030964 -0.661635 118.474221 -10.555566 -0.000019 -0.000004 4.061127 -43.539218 79.832945 -51.601447 -0.000004 0.000000 3.248911 -44.039209 79.832945 -51.600669 -0.000043 -0.000013 2.639716 0.000001 -0.000002 0.000001 -0.104124 -0.006807 9.502945 168.154968 62.579361 164.416764 0.000023 -0.000072 4.568733 -16.703904 81.283855 -19.989846 0.000010 -0.000082 3.655014 -17.203915 81.283862 -19.990374 -0.000016 0.000017 2.741257 -0.000002 -0.000000 0.000000 -0.086761 2.267427 8.921745 156.244266 55.958934 159.499342 0.000011 0.000023 4.061165 30.087666 83.826276 34.428747 0.000008 -0.000001 3.655048 31.087452 83.826283 34.431790 -0.000023 -0.000005 2.741248 -0.000000 -0.000001 0.000002 0.173508 4.467169 7.976982 143.445966 52.279743 154.544231 -0.000008 0.000019 3.350432 56.364951 78.235487 68.963539 -0.000008 0.000008 2.842783 58.365018 78.235493 68.961558 -0.000028 -0.000008 2.639699 0.000000 0.000000 -0.000000 -0.000016 0.000022 -0.000009 -0.000003 -0.000003 -0.000004 -0.000016 -0.000010 -0.000000 0.000001 0.000004 -0.000001 -11.289920 -0.000088 -0.000015 7.472060 10.612036 -22.377266 0.000026 0.000010 -38.200283 0.256900 -0.822629 72.656807 0.000008 -0.000031 -39.900925 -13.032104 2.717655 46.577372 0.000000 -15.261698 0.000015 1.211053 -11.465660 -57.808460 0.000009 -7.370656 0.000002 -0.000002 0.000002 0.000000 -0.000014 0.000010 -0.000001 -0.000002 -0.000004 0.000001 0.000041 0.000063 -0.000002 -0.000001 -0.000001 0.000001 11.315630 -0.000072 0.000006 -35.017349 0.500061 -26.315722 0.000000 0.000043 -38.200291 0.088890 -0.116494 52.653146 0.000012 -0.000005 -39.900860 2.556556 -2.421844 3.917091 0.000028 -15.261751 0.000010 -1.541973 0.454380 -19.825672 -0.000009 -7.539984 -0.000002 0.000001 0.000000 -0.000001 0.000003 0.000046 -0.000001 0.000002 -0.000000 0.000000 -0.000004 0.000055 -0.000010 0.000001 -0.000000 0.000001 
